<?xml version="1.0" standalone="no"?>
<!DOCTYPE svg PUBLIC "-//W3C//DTD SVG 20010904//EN"
 "http://www.w3.org/TR/2001/REC-SVG-20010904/DTD/svg10.dtd">
<svg version="1.0" xmlns="http://www.w3.org/2000/svg"
 width="420.000000pt" height="420.000000pt" viewBox="0 0 420.000000 420.000000"
 preserveAspectRatio="xMidYMid meet">
<metadata>
Created by potrace 1.14, written by Peter Selinger 2001-2017
</metadata>
<g transform="translate(0.000000,420.000000) scale(0.100000,-0.100000)"
fill="#000000" stroke="none">
<path d="M1912 3678 c-188 -23 -385 -98 -510 -193 -108 -81 -216 -263 -297
-497 -37 -107 -38 -108 -70 -108 -44 0 -95 -37 -125 -90 -23 -42 -25 -55 -25
-175 0 -110 4 -141 24 -203 31 -93 93 -167 156 -184 37 -10 46 -18 65 -57 28
-58 98 -157 139 -195 34 -33 39 -46 16 -46 -32 0 -130 -41 -189 -79 -153 -100
-251 -255 -302 -476 -26 -112 -26 -391 0 -484 42 -154 119 -229 263 -260 89
-19 688 -34 1393 -35 611 -1 681 1 737 16 164 46 242 123 273 273 14 64 9 261
-10 416 -45 361 -203 572 -477 635 -43 10 -79 19 -81 20 -2 1 19 30 46 63 27
34 65 93 83 130 29 58 39 70 69 79 109 35 172 155 186 357 10 144 -33 250
-115 284 -26 11 -29 19 -35 71 -18 159 -92 330 -188 435 -217 237 -616 355
-1026 303z m403 -53 c249 -38 436 -124 567 -263 145 -154 208 -349 208 -646 0
-452 -158 -750 -460 -869 -250 -98 -660 -123 -930 -56 -47 11 -132 43 -190 71
-92 44 -115 61 -196 142 -81 81 -98 104 -142 196 -27 58 -57 136 -67 175 -26
112 -31 255 -10 376 44 265 197 587 328 691 199 157 565 232 892 183z m-1273
-872 c-18 -103 -10 -282 17 -387 12 -44 19 -81 17 -83 -7 -7 -40 14 -69 44
-43 46 -69 133 -74 253 -4 66 -1 121 7 149 14 52 59 101 92 101 l24 0 -14 -77z
m2135 45 c42 -47 48 -69 47 -183 -1 -122 -19 -205 -60 -267 -23 -36 -70 -75
-79 -66 -2 2 2 26 11 53 27 90 44 228 44 358 0 70 4 127 8 127 5 0 18 -10 29
-22z m-240 -902 c56 -12 139 -40 151 -51 1 -1 -5 -60 -14 -131 -20 -149 -25
-616 -10 -901 l9 -173 -120 0 -121 0 -6 273 c-17 777 -18 967 -6 982 15 19 31
19 117 1z m-1534 -33 l44 -28 6 -335 c4 -184 7 -449 7 -587 l0 -253 -117 0
c-173 0 -161 -9 -146 113 26 218 36 530 24 782 -7 132 -14 254 -17 271 -5 30
-4 31 48 47 76 22 101 20 151 -10z m1353 -111 c-4 -3 -17 5 -31 18 l-25 24 27
29 28 29 3 -47 c2 -26 1 -50 -2 -53z m-1586 -223 c13 -294 8 -480 -21 -704
-10 -82 -19 -151 -19 -152 0 -8 -46 0 -105 18 -116 35 -171 116 -194 283 -22
157 -6 363 39 498 43 129 131 252 230 324 40 29 46 31 52 15 3 -10 12 -137 18
-282z m423 228 c-3 -5 7 -21 22 -37 16 -17 25 -35 22 -44 -7 -18 9 -31 18 -15
5 7 19 -1 40 -21 l33 -32 43 46 c29 32 45 44 53 36 7 -7 0 -20 -22 -43 -18
-18 -32 -36 -32 -40 0 -16 26 -5 55 23 28 27 33 29 45 15 9 -11 10 -18 1 -29
-15 -18 4 -32 23 -17 10 8 17 7 26 -4 13 -15 40 -21 40 -8 0 3 -8 15 -17 25
-16 17 -15 20 17 53 l34 35 35 -35 35 -35 -29 -30 c-37 -39 -24 -52 15 -15
l30 29 33 -32 c43 -42 57 -28 15 15 l-32 33 39 40 c45 46 72 50 103 17 l22
-24 -20 -18 c-19 -17 -27 -45 -13 -45 4 0 17 10 30 22 22 21 23 21 43 3 11
-10 20 -25 20 -34 0 -9 23 8 58 42 l58 57 44 -45 c40 -41 70 -57 70 -38 0 4
-21 29 -47 55 -40 41 -44 49 -33 63 7 9 20 20 29 24 24 12 77 24 68 15 -4 -4
1 -16 10 -26 16 -17 15 -20 -15 -51 -42 -44 -28 -57 15 -15 l33 32 22 -22 22
-22 -23 -24 c-12 -13 -18 -27 -13 -30 5 -3 17 3 27 14 12 13 25 18 38 14 15
-5 18 -2 13 13 -7 22 36 69 53 58 6 -3 11 -25 11 -49 0 -50 -26 -82 -59 -71
-22 7 -29 -9 -11 -20 8 -5 7 -11 -1 -21 -15 -18 -4 -31 14 -15 11 8 18 6 32
-9 18 -20 18 -21 -5 -45 -13 -14 -30 -25 -37 -25 -9 0 -13 -8 -11 -22 2 -13 8
-22 15 -21 6 1 19 -7 28 -18 18 -18 17 -20 -3 -42 -21 -23 -29 -47 -15 -47 4
0 20 12 35 27 l28 27 0 -62 c0 -34 -3 -62 -7 -62 -4 0 -24 17 -45 37 -25 25
-41 34 -48 27 -7 -7 3 -23 30 -49 l39 -38 -20 -26 c-24 -30 -8 -42 22 -15 10
9 21 15 23 13 2 -2 6 -125 10 -273 l6 -269 -597 6 c-329 4 -614 10 -634 13
l-36 6 -2 262 c0 143 -4 402 -7 573 l-7 313 51 -22 c28 -12 48 -26 45 -31z
m1619 0 c134 -134 199 -366 202 -717 1 -154 -1 -169 -23 -218 -39 -87 -120
-144 -237 -167 l-31 -6 -9 173 c-17 332 -5 874 22 971 8 26 19 21 76 -36z
m-570 11 c-30 -30 -33 -31 -48 -16 -16 16 -15 18 17 32 56 24 66 19 31 -16z
m63 -18 c18 -20 18 -21 -8 -48 l-27 -26 -22 22 -22 22 24 25 c28 30 32 31 55
5z m-1042 -1 c32 -8 36 -13 26 -25 -17 -20 -32 -17 -59 11 -26 28 -22 30 33
14z m115 -25 c23 -7 23 -7 -9 -40 -37 -39 -45 -41 -71 -17 -18 16 -18 17 4 40
22 24 37 27 76 17z m630 -7 c9 -10 1 -23 -31 -55 -43 -42 -44 -42 -61 -23 -18
20 -18 21 10 55 30 36 64 45 82 23z m-113 -17 c-14 -15 -21 -17 -32 -9 -22 19
-15 29 19 29 30 0 31 0 13 -20z m-360 -20 c-25 -27 -31 -28 -44 -16 -20 21 2
46 42 46 l31 0 -29 -30z m178 -2 l-32 -32 -26 24 -27 25 24 6 c13 4 39 7 58 8
l35 1 -32 -32z m654 -145 c-4 -3 -13 0 -22 7 -12 10 -13 16 -3 27 11 13 14 12
22 -6 5 -12 6 -24 3 -28z m-1 -141 c-3 -3 -15 3 -26 13 l-20 18 22 25 23 24 3
-37 c2 -20 1 -40 -2 -43z"/>
<path d="M2000 3526 c0 -19 -137 -43 -153 -27 -16 16 -28 14 -25 -5 4 -20
-109 -61 -125 -45 -17 17 -29 13 -23 -7 5 -14 -4 -23 -39 -40 -25 -12 -45 -17
-45 -12 0 6 -7 10 -16 10 -10 0 -13 -6 -10 -17 7 -23 -61 -70 -77 -54 -18 18
-30 13 -24 -9 4 -15 -6 -31 -36 -60 -55 -51 -41 -63 18 -15 43 36 46 37 64 21
12 -11 21 -13 25 -7 4 5 2 12 -4 16 -18 11 -10 30 23 51 l33 21 29 -23 c31
-24 55 -31 55 -15 0 5 -11 16 -25 25 -35 23 -31 34 17 56 41 18 42 18 69 -3
35 -25 53 -13 20 14 -17 14 -19 20 -10 24 101 36 101 36 124 15 22 -21 55 -27
55 -11 0 5 -9 13 -20 16 -22 7 -27 25 -7 26 6 0 34 4 62 8 45 8 51 6 68 -15
10 -13 25 -24 33 -24 19 0 18 16 -1 24 -29 11 -15 26 24 26 31 0 41 -4 46 -20
3 -11 11 -20 16 -20 5 0 9 9 9 20 0 16 7 20 35 20 19 0 35 5 35 10 0 6 -12 10
-26 10 -14 0 -33 4 -42 9 -11 6 -37 6 -67 0 -41 -8 -52 -7 -61 6 -14 19 -24
19 -24 1z"/>
<path d="M2380 3104 c-52 -2 -268 -8 -480 -14 -410 -11 -472 -19 -538 -63 -71
-47 -77 -73 -74 -312 4 -409 25 -523 112 -619 89 -96 217 -137 483 -155 235
-16 497 9 729 68 263 68 344 191 355 543 10 302 -38 462 -160 525 -48 25 -62
27 -192 28 -77 1 -183 1 -235 -1z m365 -55 c109 -30 158 -127 172 -334 6 -93
5 -99 -10 -86 -13 10 -14 17 -7 26 21 25 -7 25 -34 0 -31 -29 -34 -49 -6 -40
42 13 42 -8 -1 -51 -23 -24 -40 -47 -36 -50 4 -4 13 -2 20 4 10 9 20 4 44 -21
25 -27 30 -38 26 -69 -6 -42 -33 -56 -58 -29 -14 16 -13 19 5 36 19 17 27 45
13 45 -4 0 -17 -10 -30 -22 l-23 -22 -28 27 c-33 31 -46 34 -38 9 4 -12 -5
-29 -29 -52 l-35 -34 -23 22 c-36 34 -55 27 -22 -8 l29 -30 -32 -32 -32 -32
-30 29 -30 29 22 23 c28 30 15 43 -15 15 -24 -22 -24 -22 -42 -2 -10 11 -22
17 -27 14 -5 -3 -2 -14 6 -23 23 -25 20 -33 -19 -71 l-35 -34 -35 34 c-45 44
-59 30 -15 -15 l34 -35 -47 -48 -47 -47 -32 32 c-30 31 -31 33 -15 51 9 10 17
22 17 25 0 18 -24 2 -79 -55 -50 -52 -62 -60 -75 -49 -22 19 -41 3 -22 -18 14
-16 13 -20 -17 -49 l-33 -32 -27 28 c-27 29 -27 29 -7 47 11 10 20 22 20 27 0
20 -28 4 -77 -44 -41 -41 -55 -50 -65 -40 -7 7 -19 12 -27 12 -11 0 -10 -4 4
-20 18 -19 18 -22 2 -38 -16 -15 -19 -15 -44 11 l-27 27 37 38 c20 21 37 41
37 45 0 17 -29 4 -59 -27 -19 -19 -40 -32 -47 -29 -9 3 -14 -2 -14 -14 0 -11
-9 -28 -20 -38 -20 -18 -21 -18 -45 5 l-25 24 30 31 c28 29 39 55 23 55 -4 0
-33 -26 -65 -57 l-58 -57 -23 22 c-31 29 -44 16 -15 -15 34 -37 11 -45 -48
-17 -71 34 -138 108 -159 175 -21 72 -34 239 -37 489 -3 198 -2 206 19 236 49
68 124 78 723 93 503 12 621 12 665 0z m175 -506 l0 -37 -22 21 c-18 18 -19
24 -8 37 20 25 30 19 30 -21z m-138 -146 c-12 -13 -22 -26 -22 -30 0 -14 28
-6 45 13 17 19 19 19 37 3 18 -16 17 -18 -19 -55 l-37 -38 -38 37 -38 37 37
38 c24 25 40 35 47 28 6 -6 2 -18 -12 -33z m-227 -147 l-39 -40 -30 30 -30 30
39 40 39 40 30 -30 30 -30 -39 -40z m183 -7 l-32 -33 -38 37 -38 37 32 33 32
33 38 -37 38 -37 -32 -33z m147 49 c-19 -62 -31 -71 -59 -43 l-21 22 43 40
c24 23 45 39 48 37 2 -3 -3 -28 -11 -56z m-230 -132 c-19 -20 -35 -39 -35 -43
0 -16 26 -5 57 25 l33 32 25 -24 c14 -13 25 -27 25 -31 0 -20 -224 -86 -355
-104 l-50 -7 27 28 c26 26 28 27 46 11 24 -22 37 -9 15 15 -16 18 -15 21 30
66 l47 46 50 -49 c27 -27 53 -46 57 -42 4 4 -15 30 -42 57 l-49 50 39 40 39
40 38 -37 38 -37 -35 -36z m-182 62 l27 -28 -48 -47 -48 -47 -29 30 -29 30 44
45 c24 25 47 45 50 45 4 0 18 -13 33 -28z m347 3 c22 -23 22 -25 6 -50 -25
-38 -44 -41 -74 -12 l-26 27 29 30 c16 16 32 30 35 30 4 0 17 -11 30 -25z
m-535 -35 l29 -30 -37 -38 -37 -37 -32 33 -32 32 34 35 c19 19 37 35 40 35 3
0 19 -14 35 -30z m78 -78 l27 -28 -30 -29 c-16 -16 -30 -34 -30 -41 0 -11 -65
-24 -123 -24 l-31 0 29 30 c27 28 30 29 47 13 23 -21 36 -9 19 19 -11 18 -9
24 20 54 18 19 36 34 39 34 3 0 18 -13 33 -28z m-187 -89 c-42 -40 -49 -43
-100 -43 -31 0 -56 3 -56 7 0 4 12 20 27 35 l27 28 28 -27 c36 -34 50 -21 15
14 l-27 27 32 33 32 33 34 -32 33 -33 -45 -42z m-126 43 c0 -5 -10 -20 -22
-33 l-22 -23 -28 27 -28 27 27 28 27 28 23 -22 c13 -12 23 -26 23 -32z m-334
-45 c-10 -16 -37 -13 -58 6 -17 15 -17 17 -1 35 16 18 17 18 41 -6 14 -13 21
-29 18 -35z m137 -17 c-7 -19 -53 -18 -75 3 -18 16 -18 17 4 40 l22 23 27 -26
c15 -14 25 -33 22 -40z m120 -15 c-7 -7 -26 -9 -51 -4 l-41 7 27 29 26 30 25
-26 c19 -18 22 -28 14 -36z"/>
<path d="M1823 2977 c-12 -20 -120 -30 -127 -11 -8 20 -23 17 -29 -6 -3 -11
-14 -20 -24 -20 -11 0 -40 -11 -66 -23 -41 -21 -48 -22 -61 -8 -19 19 -33 7
-16 -14 10 -12 8 -23 -10 -60 -12 -25 -26 -43 -30 -40 -5 3 -12 0 -16 -6 -4
-6 -1 -15 7 -19 10 -6 13 -25 11 -69 -4 -57 -5 -61 -28 -61 -14 0 -22 -4 -19
-10 3 -5 14 -10 25 -10 16 0 18 -6 13 -61 -5 -50 -3 -61 8 -57 9 3 15 24 17
61 3 49 6 57 22 57 11 0 20 5 20 10 0 6 -9 10 -21 10 -15 0 -19 4 -15 16 3 9
6 33 6 54 0 33 3 37 20 33 24 -6 26 5 4 22 -19 13 -15 47 9 79 13 17 15 17 45
2 36 -19 42 -20 42 -6 0 5 -12 15 -26 23 -33 17 -18 31 57 50 50 13 56 13 78
-4 23 -19 51 -25 51 -13 0 4 -8 12 -17 19 -15 11 -12 14 29 20 44 7 49 5 72
-21 13 -16 28 -26 32 -21 4 4 2 13 -4 19 -22 22 -12 28 51 28 l64 0 12 -40 c6
-22 16 -40 21 -40 13 0 13 22 0 54 l-10 26 70 0 c69 0 99 12 57 24 -12 3 -48
6 -79 6 -32 0 -58 5 -58 10 0 13 -27 13 -32 1 -5 -15 -114 -16 -132 -2 -11 10
-16 9 -23 -2z"/>
</g>
</svg>
