<?xml version="1.0" standalone="no"?>
<!DOCTYPE svg PUBLIC "-//W3C//DTD SVG 20010904//EN"
 "http://www.w3.org/TR/2001/REC-SVG-20010904/DTD/svg10.dtd">
<svg version="1.0" xmlns="http://www.w3.org/2000/svg"
 width="336.000000pt" height="336.000000pt" viewBox="0 0 336.000000 336.000000"
 preserveAspectRatio="xMidYMid meet">
<metadata>
Created by potrace 1.14, written by Peter Selinger 2001-2017
</metadata>
<g transform="translate(0.000000,336.000000) scale(0.100000,-0.100000)"
fill="#000000" stroke="none">
<path d="M1480 3214 c-175 -28 -264 -52 -371 -98 -113 -48 -229 -140 -286
-226 -66 -100 -159 -297 -197 -420 -15 -51 -19 -56 -48 -58 -97 -8 -161 -107
-159 -247 2 -148 31 -261 84 -332 31 -40 98 -83 129 -83 9 0 21 -14 29 -32 20
-49 103 -169 142 -208 20 -19 37 -38 37 -41 0 -4 -17 -9 -38 -13 -59 -9 -171
-69 -235 -127 -114 -101 -195 -248 -233 -422 -21 -93 -26 -327 -10 -433 29
-184 115 -281 276 -312 108 -22 697 -36 1475 -37 536 0 596 2 655 18 131 36
200 90 246 191 27 58 29 68 28 211 0 439 -82 681 -281 831 -55 41 -170 88
-251 102 l-44 7 42 52 c23 29 63 90 89 135 37 65 53 84 76 90 47 12 102 64
128 121 37 79 51 151 51 272 1 102 -1 114 -27 160 -18 34 -43 60 -72 78 -37
22 -45 32 -45 55 0 57 -51 228 -90 306 -85 166 -221 288 -417 370 -61 26 -211
68 -288 81 -46 8 -357 14 -395 9z m389 -60 c347 -56 593 -225 691 -473 25 -66
57 -190 65 -257 12 -103 6 -377 -10 -434 -1 -3 -5 -23 -9 -45 -22 -115 -92
-272 -159 -360 -130 -170 -347 -264 -672 -292 -103 -8 -302 -8 -385 1 -324 34
-569 198 -690 460 -59 127 -75 207 -74 376 1 130 4 157 32 262 65 242 197 492
305 578 103 83 277 154 452 184 103 18 346 18 454 0z m-1285 -866 c-22 -122
-7 -339 31 -459 9 -28 -10 -23 -49 11 -63 56 -92 151 -95 308 -2 83 1 103 21
142 21 42 80 86 98 75 4 -2 1 -37 -6 -77z m2144 28 c35 -52 45 -101 38 -201
-7 -125 -36 -212 -86 -264 -22 -22 -44 -41 -49 -41 -5 0 -3 24 5 53 13 48 24
109 39 215 3 24 7 95 7 158 1 125 8 137 46 80z m-174 -912 c37 -12 70 -25 73
-27 2 -3 0 -38 -6 -79 -5 -40 -14 -107 -18 -148 -11 -102 -10 -626 1 -775 9
-119 10 -140 7 -181 -1 -21 -6 -22 -121 -23 l-120 -2 -1 73 c-1 40 -2 125 -4
188 -12 540 -14 984 -3 997 15 18 100 8 192 -23z m-1610 -11 l45 -28 2 -120
c0 -66 2 -199 4 -295 1 -96 4 -305 6 -465 l4 -290 -134 0 c-73 0 -136 2 -141
5 -4 3 -4 30 0 60 23 157 34 344 34 600 0 187 -10 420 -20 487 -6 36 7 47 73
62 62 15 79 12 127 -16z m1356 -63 c0 -55 -9 -61 -40 -28 l-20 22 27 28 c15
15 28 28 30 28 2 0 3 -22 3 -50z m-1603 -13 c1 -18 5 -90 9 -162 15 -233 9
-627 -10 -755 -10 -63 -19 -133 -20 -154 -1 -22 -8 -42 -14 -44 -21 -7 -137
29 -170 52 -85 60 -121 158 -129 356 -12 321 77 557 266 706 30 24 58 41 61
38 3 -3 6 -20 7 -37z m2064 -39 c79 -80 154 -256 174 -407 13 -101 20 -219 20
-336 0 -114 -3 -136 -23 -180 -13 -27 -35 -63 -50 -78 -32 -34 -103 -72 -152
-82 -19 -3 -42 -9 -51 -11 -14 -4 -17 6 -18 58 0 35 -4 104 -8 153 -16 183 -9
647 12 830 3 22 6 59 7 81 3 37 5 41 21 32 10 -5 41 -32 68 -60z m-1624 10
c-8 -5 -2 -17 17 -37 17 -18 26 -36 23 -45 -7 -18 9 -31 18 -15 5 7 19 -1 40
-21 l33 -32 42 46 c23 25 46 43 51 40 16 -9 10 -23 -21 -51 -16 -14 -30 -30
-30 -35 0 -17 25 -7 55 22 28 27 33 29 45 15 9 -11 10 -18 1 -28 -15 -18 -3
-29 19 -17 13 7 21 5 30 -5 13 -16 40 -20 40 -7 0 5 -9 17 -19 26 -19 17 -18
18 17 51 l37 34 35 -34 34 -35 -27 -28 c-45 -47 -30 -61 18 -16 l28 25 31 -30
c42 -41 56 -27 15 15 l-31 32 41 41 c47 47 67 50 98 17 22 -23 22 -23 3 -41
-18 -17 -27 -45 -15 -45 3 0 15 9 27 20 29 27 35 25 57 -11 l19 -31 54 55 55
56 46 -47 c33 -33 50 -43 57 -36 8 8 3 18 -17 36 -15 13 -36 34 -47 46 -17 19
-17 23 -3 37 9 9 32 22 51 30 38 16 53 19 43 8 -4 -3 0 -14 8 -23 14 -16 13
-20 -15 -50 -41 -43 -27 -60 16 -19 l34 33 22 -22 22 -22 -23 -24 c-28 -29
-12 -43 19 -16 12 10 29 16 38 13 11 -5 14 -2 10 9 -9 21 39 75 53 61 37 -37
-6 -132 -51 -118 -19 6 -21 4 -15 -14 4 -13 1 -28 -5 -36 -10 -12 -10 -15 2
-15 8 0 19 5 24 10 7 7 16 4 29 -10 18 -20 18 -21 -5 -45 -13 -14 -30 -25 -37
-25 -9 0 -13 -8 -11 -22 2 -13 6 -21 9 -18 8 6 49 -29 49 -41 0 -5 -12 -19
-26 -32 -18 -17 -23 -27 -14 -32 7 -4 24 5 41 21 l29 28 0 -62 c0 -34 -3 -62
-7 -62 -4 0 -24 16 -44 36 -54 53 -73 38 -22 -16 l42 -43 -20 -26 c-24 -30 -8
-42 22 -15 10 9 21 15 24 13 2 -3 6 -125 9 -273 l5 -269 -517 7 c-440 6 -616
9 -727 15 -20 1 -21 7 -23 209 -1 114 -4 372 -7 573 l-6 367 54 -22 c31 -12
50 -24 44 -28z m1063 36 c0 -6 -15 -21 -41 -42 -13 -10 -19 -10 -29 2 -10 13
-6 18 22 30 37 16 48 19 48 10z m45 -44 c18 -20 18 -21 -8 -48 l-27 -26 -22
22 -22 22 24 25 c28 30 32 31 55 5z m-1029 -6 c20 -5 22 -9 13 -20 -15 -18
-22 -18 -47 5 -26 22 -29 36 -6 27 9 -3 27 -9 40 -12z m124 -24 c7 0 -64 -69
-72 -70 -5 0 -16 9 -27 19 -18 18 -18 19 3 40 16 17 29 21 56 17 19 -3 37 -5
40 -6z m608 -3 c9 -10 1 -23 -31 -55 -43 -42 -44 -42 -61 -23 -18 20 -18 21
10 55 30 36 64 45 82 23z m-113 -17 c-14 -15 -21 -17 -32 -9 -22 19 -15 29 19
29 30 0 31 0 13 -20z m-360 -20 c-24 -25 -31 -28 -42 -17 -23 23 -5 47 35 47
l36 0 -29 -30z m177 -3 l-31 -31 -26 24 c-14 13 -25 26 -25 29 0 4 25 7 57 8
l56 1 -31 -31z m656 -122 c1 -14 -2 -25 -7 -25 -12 0 -23 29 -15 41 10 16 20
9 22 -16z m2 -130 c0 -39 -4 -42 -26 -21 -17 18 -18 28 -2 44 20 20 28 14 28
-23z"/>
<path d="M1545 3063 c-4 -13 -15 -23 -24 -24 -9 0 -24 -2 -33 -4 -74 -14 -97
-15 -103 -6 -9 16 -28 13 -22 -3 8 -19 -110 -63 -126 -47 -17 17 -29 13 -23
-7 5 -14 -4 -23 -39 -40 -25 -12 -45 -17 -45 -12 0 6 -7 10 -15 10 -8 0 -12
-6 -9 -14 7 -19 -66 -70 -80 -56 -17 17 -29 11 -23 -10 4 -15 -6 -31 -36 -60
-55 -51 -41 -63 18 -15 45 37 46 38 67 19 21 -19 21 -19 15 13 -5 28 -2 34 25
51 l32 20 31 -24 c32 -24 55 -31 55 -16 0 5 -14 19 -31 31 l-32 24 48 23 48
23 28 -22 c34 -25 54 -13 21 13 l-22 18 42 16 c69 24 72 24 102 -1 21 -18 32
-21 40 -13 10 10 0 22 -29 33 -19 8 1 16 60 25 57 9 59 9 83 -20 18 -21 28
-26 36 -18 8 8 6 14 -6 21 -30 17 -20 29 23 29 32 0 42 -4 46 -20 3 -11 9 -20
14 -20 5 0 9 9 9 20 0 16 7 20 35 20 19 0 35 5 35 10 0 11 0 11 -45 15 -16 1
-31 7 -33 14 -3 8 -8 9 -15 2 -11 -8 -61 -15 -94 -12 -6 1 -14 9 -16 19 -4 14
-6 14 -12 -5z"/>
<path d="M1827 2634 c-1 -1 -119 -5 -262 -8 -537 -13 -582 -18 -657 -65 -69
-44 -83 -82 -83 -226 1 -180 13 -442 25 -512 43 -260 241 -358 725 -357 104 1
227 9 305 20 414 61 535 129 594 334 25 89 37 187 38 310 2 265 -53 421 -167
479 -49 26 -53 26 -283 26 -128 0 -234 0 -235 -1z m464 -57 c58 -18 85 -41
113 -97 34 -67 43 -111 61 -293 3 -32 -8 -43 -24 -23 -8 10 -9 16 -1 21 6 3 8
11 4 16 -3 5 -11 6 -17 2 -7 -4 -16 -8 -21 -8 -10 0 -26 -36 -20 -47 2 -3 13
-4 23 -1 35 9 31 -13 -9 -52 -46 -45 -50 -58 -16 -49 18 4 29 -2 49 -25 14
-17 24 -38 22 -48 -2 -10 -4 -27 -4 -37 -1 -11 -4 -16 -8 -13 -3 4 -12 2 -18
-3 -8 -7 -17 -4 -29 8 -15 18 -15 20 4 37 19 17 27 45 13 45 -4 0 -17 -10 -30
-22 l-23 -22 -28 27 c-33 31 -46 34 -38 9 4 -12 -5 -29 -29 -52 l-34 -33 -28
27 c-34 34 -45 15 -12 -20 l23 -25 -32 -31 -32 -32 -30 29 -30 29 21 22 c28
30 21 51 -8 24 -26 -24 -36 -25 -53 -5 -7 8 -17 12 -22 9 -5 -3 -2 -14 8 -25
18 -21 14 -29 -35 -77 l-24 -23 -33 32 c-44 43 -57 29 -15 -15 l33 -34 -47
-47 -48 -47 -28 33 c-26 31 -27 35 -12 51 9 10 14 20 11 23 -7 8 -38 -5 -38
-16 0 -5 -7 -9 -15 -9 -8 0 -15 -5 -15 -12 0 -6 -16 -27 -36 -45 -28 -25 -40
-31 -50 -22 -20 17 -36 2 -21 -22 10 -17 8 -22 -17 -44 -35 -30 -34 -30 -62
-4 l-23 22 20 26 c38 48 -2 35 -57 -20 -51 -50 -54 -52 -72 -36 -24 22 -37 9
-15 -15 16 -17 16 -20 0 -36 -16 -15 -19 -15 -44 11 l-27 27 38 39 c53 55 42
75 -14 23 -24 -22 -50 -38 -57 -35 -8 3 -13 -2 -13 -14 0 -11 -9 -28 -20 -38
-20 -18 -21 -18 -45 5 l-25 24 31 32 c17 18 29 38 27 45 -3 9 -27 -8 -66 -45
l-62 -59 -24 22 c-13 12 -27 18 -30 13 -3 -5 3 -17 14 -27 44 -40 8 -48 -56
-12 -127 70 -167 155 -179 382 -12 246 -16 422 -10 457 9 53 51 93 116 112 61
18 140 22 564 32 165 3 301 7 302 8 1 0 88 2 195 4 144 2 205 0 239 -11z m171
-479 c3 -7 2 -23 0 -36 -4 -22 -6 -22 -23 -6 -14 13 -16 21 -8 35 11 22 25 25
31 7z m-142 -173 c-11 -12 -20 -24 -20 -28 0 -13 24 -7 44 12 20 18 22 18 38
2 17 -16 16 -19 -20 -54 l-37 -37 -38 39 -37 38 37 37 c26 26 39 33 44 24 5
-8 0 -21 -11 -33z m-42 -152 l-32 -33 -38 37 -38 37 32 33 32 33 38 -37 38
-37 -32 -33z m146 52 c-19 -64 -24 -68 -54 -44 l-25 19 43 41 c24 23 45 39 47
37 2 -2 -2 -26 -11 -53z m-316 20 l26 -25 -39 -40 -39 -40 -30 30 -30 30 34
35 c19 19 38 35 42 35 5 0 21 -11 36 -25z m86 -155 c-19 -20 -34 -39 -34 -43
0 -16 26 -5 57 25 l32 31 26 -25 c19 -20 22 -28 13 -36 -36 -29 -200 -75 -353
-98 l-40 -6 27 28 c26 26 28 27 46 11 23 -21 38 -10 17 13 -20 22 -13 37 37
79 l39 34 49 -48 c27 -27 53 -46 57 -42 4 4 -15 30 -42 57 l-49 50 25 27 c48
54 50 55 90 15 l37 -37 -34 -35z m-182 63 l28 -27 -46 -47 -47 -48 -30 30 -30
30 44 45 c24 24 45 44 48 44 3 0 18 -12 33 -27z m347 3 c19 -20 21 -28 12 -45
-6 -11 -21 -26 -32 -32 -18 -9 -26 -7 -47 15 l-26 26 29 30 c16 16 32 30 35
30 4 0 17 -11 29 -24z m-534 -36 l29 -30 -38 -36 -38 -36 -31 31 -31 31 34 35
c19 19 37 35 40 35 3 0 19 -14 35 -30z m78 -78 l27 -28 -30 -29 c-16 -16 -30
-35 -30 -42 0 -7 -12 -13 -27 -14 -16 0 -50 -3 -78 -5 l-50 -5 30 30 c27 29
30 30 47 14 23 -21 36 -9 19 19 -11 18 -9 24 20 54 18 19 36 34 39 34 3 0 18
-13 33 -28z m-153 -44 c0 -5 -16 -25 -35 -44 -31 -31 -43 -36 -91 -38 -30 -2
-57 0 -59 4 -2 4 8 19 24 34 l27 26 24 -25 c13 -14 27 -25 32 -25 16 0 8 20
-17 42 l-25 22 32 33 32 33 28 -27 c15 -15 28 -31 28 -35z m-160 0 c0 -12 -33
-48 -44 -48 -5 0 -20 10 -33 22 l-23 22 27 28 27 28 23 -22 c13 -12 23 -25 23
-30z m-335 -49 c-11 -16 -44 -9 -59 13 -14 19 -14 23 2 34 14 10 20 8 39 -13
13 -13 21 -29 18 -34z m138 -16 c-7 -18 -51 -14 -76 6 -16 14 -16 16 5 38 l22
23 27 -26 c15 -15 25 -33 22 -41z m119 -12 c-7 -4 -23 -6 -35 -5 -12 1 -30 3
-40 3 -14 1 -13 6 10 31 l27 31 25 -26 c20 -19 23 -28 13 -34z"/>
<path d="M1524 2517 c-11 -20 -116 -26 -138 -8 -11 10 -16 9 -23 -2 -11 -20
-110 -28 -124 -10 -16 18 -29 16 -29 -5 0 -12 -8 -18 -25 -20 -14 -1 -44 -11
-67 -23 -34 -17 -45 -19 -61 -10 -23 15 -34 7 -17 -14 10 -12 8 -23 -10 -60
-15 -30 -27 -44 -36 -41 -8 3 -14 -1 -14 -8 0 -8 6 -16 14 -19 8 -3 13 -14 11
-24 -2 -10 -4 -37 -4 -59 -1 -33 -5 -41 -18 -40 -26 2 -32 -18 -6 -22 20 -3
21 -8 17 -63 -3 -46 -1 -60 8 -57 8 3 14 27 16 61 3 49 6 57 22 57 25 0 26 16
2 22 -13 4 -17 13 -16 34 1 16 3 39 3 51 1 16 6 20 21 16 24 -6 26 5 4 22 -19
13 -15 47 9 79 13 17 15 17 45 2 38 -20 42 -20 42 -2 0 8 -12 17 -27 20 -22 6
-24 9 -12 21 8 8 39 21 69 28 51 13 57 13 79 -4 25 -20 51 -25 51 -10 0 5 -7
12 -16 15 -25 9 -9 19 36 23 34 3 44 0 64 -24 25 -28 50 -26 26 2 -17 21 -12
24 48 28 61 5 66 2 81 -45 15 -44 36 -52 28 -10 -3 15 -8 34 -12 43 -5 14 2
16 56 12 35 -2 70 -1 78 2 30 12 -11 25 -78 25 -48 0 -67 4 -76 17 -11 15 -13
15 -21 0z"/>
</g>
</svg>
