<?xml version="1.0" standalone="no"?>
<!DOCTYPE svg PUBLIC "-//W3C//DTD SVG 20010904//EN"
 "http://www.w3.org/TR/2001/REC-SVG-20010904/DTD/svg10.dtd">
<svg version="1.0" xmlns="http://www.w3.org/2000/svg"
 width="487.000000pt" height="487.000000pt" viewBox="0 0 487.000000 487.000000"
 preserveAspectRatio="xMidYMid meet">
<metadata>
Created by potrace 1.14, written by Peter Selinger 2001-2017
</metadata>
<g transform="translate(0.000000,487.000000) scale(0.100000,-0.100000)"
fill="#000000" stroke="none">
<path d="M3606 3865 c2 -55 5 -168 7 -251 l2 -151 -66 60 c-165 150 -468 272
-794 322 -295 45 -571 41 -825 -11 -376 -76 -594 -211 -625 -386 l-7 -37 89
29 c174 56 408 99 648 120 153 14 562 13 714 0 337 -31 639 -100 848 -196 40
-18 73 -28 73 -23 0 5 -7 26 -15 46 -9 21 -15 67 -15 117 0 112 -19 383 -29
426 -6 24 -8 4 -5 -65z"/>
<path d="M1080 3209 c-30 -16 -64 -38 -75 -49 -11 -10 -24 -19 -30 -19 -25 0
-29 -116 -5 -160 5 -9 22 -45 39 -81 34 -74 80 -125 163 -182 32 -21 58 -46
58 -55 0 -13 -3 -13 -17 -2 -13 10 -12 6 3 -11 11 -14 28 -38 38 -54 14 -23
20 -26 28 -15 6 9 8 -14 5 -70 -6 -104 -18 -119 -46 -57 -11 26 -30 61 -42 77
-25 35 -98 91 -109 84 -5 -3 -6 5 -3 17 3 15 -5 7 -21 -19 -25 -39 -50 -126
-28 -95 7 11 20 6 58 -23 67 -51 79 -75 93 -184 6 -51 19 -107 27 -123 14 -26
26 -107 26 -167 0 -13 -6 -28 -14 -33 -20 -13 -69 -1 -96 25 -29 27 -68 108
-78 162 -4 22 -9 35 -11 28 -7 -18 27 -135 49 -171 33 -54 58 -72 101 -72 53
0 77 -15 77 -48 0 -15 7 -63 15 -107 8 -44 24 -134 35 -201 22 -135 69 -329
94 -387 19 -46 34 -44 59 7 10 20 22 34 27 31 4 -3 23 -51 40 -108 18 -56 45
-129 60 -162 32 -68 85 -145 100 -145 6 0 23 20 38 45 15 25 29 45 32 45 3 0
23 -29 43 -64 65 -110 187 -266 209 -266 4 0 8 28 8 63 l0 62 39 -67 c73 -124
122 -189 139 -186 11 2 24 25 35 61 10 31 22 57 27 57 5 0 30 -42 55 -93 50
-104 92 -152 122 -143 24 8 74 54 135 125 l47 54 12 -29 c18 -46 24 -57 34
-58 5 0 37 32 71 73 45 53 69 75 87 75 31 2 107 64 158 130 21 28 64 80 93
115 34 39 83 118 127 205 40 77 101 191 136 253 94 167 129 263 139 378 9 112
7 109 68 128 133 42 216 230 232 527 7 130 -5 181 -50 202 l-26 11 38 25 c61
40 92 73 143 151 65 97 68 102 80 163 13 71 3 147 -19 143 -9 -1 -41 20 -70
46 -53 48 -170 124 -179 116 -2 -3 11 -14 29 -25 18 -12 50 -38 71 -60 l38
-39 -17 -37 c-18 -36 -19 -37 -64 -30 -40 6 -107 24 -150 41 -23 9 -219 63
-270 74 -157 35 -447 73 -685 90 -153 11 -641 7 -785 -6 -219 -20 -294 -29
-420 -50 -128 -22 -332 -69 -352 -81 -16 -10 -58 9 -58 26 0 11 -4 21 -10 25
-12 7 -1 36 19 53 9 7 36 26 60 43 58 38 41 37 -29 -2z m1370 -240 c91 -11
205 -25 253 -30 49 -5 96 -13 106 -19 10 -5 60 -18 112 -28 52 -11 139 -36
194 -57 167 -63 160 -56 75 -71 -59 -10 -80 -19 -98 -39 -12 -15 -37 -29 -55
-32 -18 -3 -136 11 -263 31 -327 51 -647 94 -810 108 -133 11 -143 11 -175 -8
-62 -35 -109 -159 -129 -345 -12 -104 -8 -153 17 -253 8 -32 12 -65 9 -73 -4
-9 -2 -11 6 -7 8 5 9 2 5 -9 -3 -9 -1 -19 5 -23 7 -4 8 -3 4 4 -4 7 -3 12 3
12 5 0 19 -16 32 -36 75 -122 560 -210 746 -135 57 22 64 10 13 -24 -22 -15
-28 -25 -24 -40 9 -29 11 -30 40 -16 24 11 26 10 18 -6 -12 -26 -7 -132 7
-150 26 -30 197 -123 228 -123 29 0 30 -1 19 -25 -6 -14 -16 -25 -22 -25 -6
-1 0 -7 14 -15 24 -13 21 -14 -40 -15 -87 0 -172 14 -304 51 -177 50 -314 112
-286 129 7 4 10 12 6 18 -3 6 -2 13 3 17 11 6 3 36 -13 47 -6 4 -43 8 -83 8
-63 0 -75 -3 -105 -27 -18 -15 -35 -30 -38 -34 -11 -13 -121 -19 -169 -8 -51
11 -147 81 -135 100 3 5 1 9 -4 9 -5 0 -14 26 -20 58 -6 31 -15 75 -21 97 -28
104 -22 244 19 415 6 25 12 53 13 62 1 9 5 14 11 11 5 -4 7 6 3 22 -6 34 2 63
13 45 4 -7 8 0 9 17 1 15 4 69 7 119 3 50 1 121 -4 158 l-9 67 29 15 c55 29
259 65 403 73 157 8 157 8 385 -20z m-547 -186 c-27 -19 -29 -39 -5 -51 9 -5
69 -12 132 -15 134 -7 219 -26 110 -25 -190 2 -268 -12 -305 -53 -14 -16 -25
-31 -25 -33 0 -3 -11 -17 -25 -32 -14 -15 -25 -35 -25 -45 0 -10 -4 -21 -10
-24 -5 -3 -10 -21 -10 -40 0 -19 -4 -36 -9 -39 -17 -11 -20 -77 -5 -118 8 -22
14 -55 15 -72 l1 -31 8 29 c6 17 5 36 0 47 -13 22 -13 59 -1 59 5 0 7 -9 4
-20 -3 -11 -1 -20 4 -20 11 0 23 69 23 131 0 22 5 39 10 39 6 0 10 7 10 16 0
34 54 94 95 105 62 18 123 40 95 35 -14 -3 -47 -7 -75 -10 -42 -5 -46 -5 -25
5 14 6 63 13 110 15 47 2 95 6 108 9 12 3 22 1 22 -4 0 -6 25 -8 60 -5 38 3
60 1 60 -6 0 -6 24 -10 56 -10 65 0 66 -19 1 -21 l-42 -2 45 -7 c25 -4 58 -12
73 -18 16 -7 50 -12 77 -12 27 0 52 -4 55 -10 4 -6 63 -9 148 -7 173 3 217 -8
217 -54 0 -22 4 -28 13 -23 8 6 8 3 -1 -9 -15 -17 -9 -37 11 -37 7 0 18 -10
26 -22 l13 -21 -27 21 c-40 31 -153 28 -141 -4 3 -8 0 -13 -6 -11 -13 2 -54
-66 -87 -143 -54 -126 -128 -213 -207 -243 -134 -50 -450 -19 -613 61 -62 31
-111 89 -138 167 -38 109 -13 386 46 506 28 58 43 67 116 67 39 1 40 1 18 -15z
m212 -8 c159 -19 471 -66 395 -61 -191 15 -618 73 -555 75 17 0 89 -6 160 -14z
m578 -80 c306 -45 786 -130 911 -161 158 -39 163 -45 153 -208 -16 -262 -82
-433 -183 -477 -58 -26 -152 -34 -249 -20 -209 29 -301 97 -333 246 -19 90
-20 106 -7 95 7 -6 54 -8 114 -6 90 3 105 6 126 26 14 13 28 32 31 43 6 20 7
20 20 2 8 -10 14 -28 15 -39 0 -16 5 -12 16 14 10 23 13 51 10 83 -4 26 -2 47
2 47 21 0 93 -64 111 -100 22 -43 40 -45 40 -4 0 33 -27 84 -58 109 -48 38
-104 65 -134 65 -19 0 -27 4 -22 12 4 6 3 9 -2 5 -10 -6 -128 24 -140 36 -10
10 23 8 75 -4 67 -15 61 -3 -8 17 -34 9 -64 21 -67 25 -7 12 13 11 54 0 55
-16 35 3 -30 28 -50 20 -59 26 -43 32 11 4 15 8 8 8 -7 1 -10 7 -7 15 8 22
-11 28 -89 28 -40 0 -90 4 -112 8 -22 5 -78 12 -125 15 -82 6 -143 12 -185 19
-11 2 -24 4 -29 5 -5 0 -2 9 7 19 10 10 14 22 10 25 -9 10 4 9 120 -8z m-738
-40 c-22 -8 -51 -13 -65 -13 -19 0 -16 3 15 13 22 8 51 13 65 13 19 0 16 -3
-15 -13z m120 5 c-3 -5 -21 -10 -38 -9 -31 1 -31 1 -7 9 36 11 52 11 45 0z
m118 -7 c-7 -2 -19 -2 -25 0 -7 3 -2 5 12 5 14 0 19 -2 13 -5z m666 -47 c60
-17 85 -32 31 -21 -19 4 -91 13 -160 20 l-125 13 100 1 c58 0 122 -5 154 -13z
m-416 -13 c-7 -2 -21 -2 -30 0 -10 3 -4 5 12 5 17 0 24 -2 18 -5z m427 -33
l25 -11 -25 6 c-14 3 -77 9 -140 13 -96 6 -106 8 -60 12 64 6 164 -4 200 -20z
m-18 -186 c13 -12 -9 -59 -29 -62 -13 -2 -28 -17 -38 -38 -9 -19 -20 -34 -25
-34 -11 0 -13 -33 -3 -43 3 -4 12 -2 19 4 28 23 58 2 87 -61 29 -64 28 -80 -3
-80 -33 0 -34 -41 -5 -126 15 -43 24 -87 21 -99 -3 -13 -22 -37 -41 -54 -30
-26 -44 -31 -88 -31 -85 1 -129 27 -165 98 -16 34 -27 62 -23 64 11 5 128 143
139 164 14 27 -4 50 -25 33 -19 -17 -16 -6 16 58 16 32 41 85 56 118 14 32 33
67 42 77 15 17 53 24 65 12z m253 -54 c-20 -22 -40 -26 -50 -10 -6 10 27 28
54 29 11 1 10 -4 -4 -19z m-65 -140 c0 -5 -5 -10 -11 -10 -5 0 -7 5 -4 10 3 6
8 10 11 10 2 0 4 -4 4 -10z m62 -331 c42 -22 161 -55 232 -65 32 -4 44 -9 35
-15 -12 -7 -12 -9 0 -9 10 0 11 -3 2 -13 -9 -12 -30 -10 -122 9 -61 13 -115
27 -121 30 -7 4 -8 2 -4 -4 4 -7 28 -18 54 -26 l47 -15 -55 4 -55 5 58 -16
c70 -20 69 -29 -2 -16 -63 11 -58 -1 6 -18 26 -6 69 -21 95 -32 48 -20 52 -34
22 -65 -7 -7 -14 -16 -16 -20 -1 -5 -22 -25 -45 -45 -23 -20 -39 -39 -35 -42
3 -3 0 -6 -6 -6 -5 0 -37 23 -69 50 -32 28 -67 50 -78 49 -38 -2 -56 1 -51 10
6 9 -46 37 -86 46 l-27 5 20 35 c16 27 21 54 22 133 1 55 5 98 10 95 4 -2 7
-11 7 -19 0 -8 3 -14 8 -14 4 -1 23 -23 42 -50 19 -28 38 -50 41 -50 3 0 16
-9 29 -20 30 -26 50 -25 50 3 0 15 -11 29 -30 41 -33 19 -78 80 -85 114 -3 18
2 16 33 -14 20 -20 54 -45 74 -55z m-7 -79 c3 -5 1 -10 -4 -10 -6 0 -11 5 -11
10 0 6 2 10 4 10 3 0 8 -4 11 -10z m-1020 -117 c16 -30 45 -61 76 -83 28 -19
58 -43 67 -52 9 -10 22 -18 30 -18 7 0 10 -4 7 -10 -3 -5 3 -10 13 -10 11 0
22 -7 26 -15 3 -8 12 -15 19 -15 8 0 26 -9 40 -20 14 -11 29 -20 34 -19 4 1
21 -3 36 -9 16 -7 35 -12 43 -12 20 0 97 -40 91 -47 -23 -22 -157 20 -258 82
l-44 27 45 -41 c25 -22 49 -41 53 -41 5 0 6 -4 3 -8 -2 -4 3 -8 12 -9 9 0 42
-10 72 -22 30 -11 74 -25 98 -31 23 -6 40 -15 37 -19 -3 -5 6 -12 20 -15 27
-7 34 -26 10 -26 -9 0 -60 7 -113 16 l-98 16 -39 -26 c-46 -31 -85 -29 -145 7
-53 32 -136 114 -169 166 -26 41 -71 164 -71 195 0 14 58 86 70 86 5 0 20 -21
35 -47z m425 -150 c52 -15 125 -27 188 -30 56 -3 105 -10 109 -16 10 -16 -201
-1 -315 23 -188 38 -280 76 -242 100 8 5 44 -3 94 -22 45 -17 119 -41 166 -55z
m557 -22 c19 -2 8 -31 -47 -121 -63 -102 -106 -150 -136 -150 -20 0 -21 2 -11
29 6 17 13 28 16 26 4 -2 7 15 9 37 3 46 25 104 49 130 11 12 12 18 4 18 -7 0
-9 5 -6 10 4 6 10 8 15 5 4 -3 13 1 19 9 10 12 24 13 88 7z m-137 -44 c0 -2
-10 -12 -22 -23 l-23 -19 19 23 c18 21 26 27 26 19z"/>
<path d="M1704 2088 c-4 -7 -4 -10 1 -6 4 4 15 2 24 -5 14 -11 14 -10 2 6 -16
20 -18 21 -27 5z"/>
<path d="M1760 2030 c0 -6 7 -10 15 -10 8 0 15 2 15 4 0 2 -7 6 -15 10 -8 3
-15 1 -15 -4z"/>
<path d="M1786 2002 c-3 -5 1 -9 9 -9 8 0 12 4 9 9 -3 4 -7 8 -9 8 -2 0 -6 -4
-9 -8z"/>
<path d="M2133 1823 c9 -2 25 -2 35 0 9 3 1 5 -18 5 -19 0 -27 -2 -17 -5z"/>
<path d="M2050 2620 c-34 -7 -34 -7 13 -9 26 0 47 4 47 9 0 11 -8 11 -60 0z"/>
<path d="M2168 2613 c7 -3 16 -2 19 1 4 3 -2 6 -13 5 -11 0 -14 -3 -6 -6z"/>
<path d="M2090 2443 c-65 -6 -215 -34 -230 -43 -10 -6 35 -7 120 -3 214 10
309 -14 397 -99 23 -22 48 -38 55 -36 18 8 69 102 73 137 6 48 -13 56 -99 41
-45 -8 -93 -10 -123 -5 -56 9 -143 12 -193 8z"/>
<path d="M3570 2510 c13 -8 13 -10 -2 -10 -11 0 -20 -10 -23 -25 -3 -14 -8
-37 -12 -52 -9 -39 -10 -123 0 -123 4 0 7 3 7 8 0 29 31 177 40 187 10 13 4
25 -14 25 -6 0 -4 -5 4 -10z"/>
<path d="M1022 2470 c0 -19 2 -27 5 -17 2 9 2 25 0 35 -3 9 -5 1 -5 -18z"/>
<path d="M1023 2335 c0 -27 2 -38 4 -22 2 15 2 37 0 50 -2 12 -4 0 -4 -28z"/>
<path d="M1032 2245 c0 -16 2 -22 5 -12 2 9 2 23 0 30 -3 6 -5 -1 -5 -18z"/>
</g>
</svg>
